<svg width="205" height="48" viewBox="0 0 205 48" fill="none" xmlns="http://www.w3.org/2000/svg">
<g clip-path="url(#clip0_367_16)">
<path d="M199.913 20.5559H191.057V18.3479L199.577 7.69189H202.409V18.3479H204.833V20.5559H202.409V24.4919H199.913V20.5559ZM199.913 18.3479V10.5479L193.625 18.3479H199.913Z" fill="#FFB0BF"/>
<path d="M178.272 13.284C178.24 12.116 178.448 11.1 178.896 10.236C179.36 9.356 180.024 8.684 180.888 8.22C181.768 7.74 182.792 7.5 183.96 7.5C185.048 7.5 186.016 7.716 186.864 8.148C187.712 8.564 188.376 9.156 188.856 9.924C189.336 10.692 189.576 11.58 189.576 12.588C189.576 13.708 189.24 14.716 188.568 15.612C187.912 16.508 186.936 17.284 185.64 17.94L183.168 19.188L182.832 19.356C182.176 19.74 181.632 20.18 181.2 20.676C180.784 21.172 180.576 21.708 180.576 22.284H189.624V24.492H178.128V22.692C178.112 21.396 178.504 20.284 179.304 19.356C180.12 18.412 181.056 17.676 182.112 17.148L184.728 15.828C185.528 15.428 186.112 14.964 186.48 14.436C186.848 13.892 187.032 13.268 187.032 12.564C187.032 11.668 186.744 10.956 186.168 10.428C185.608 9.9 184.872 9.636 183.96 9.636C182.968 9.636 182.184 9.972 181.608 10.644C181.032 11.3 180.768 12.18 180.816 13.284H178.272Z" fill="#FFB0BF"/>
<path d="M131 31H125V34H119V14H125V17H131V11L127 8H117L113 11V37L117 40H127L131 37V31Z" fill="#00385E"/>
<path fill-rule="evenodd" clip-rule="evenodd" d="M152 11L148 8H137L133 11V37L137 40H148L152 37V11ZM139 34V14H146V34H139Z" fill="#00385E"/>
<path d="M174 8V40H168L161 23V40H155V8H162L168 25V8H174Z" fill="#00385E"/>
<path d="M0 14H6V40H12V14H18V8H0V14Z" fill="#00385E"/>
<path d="M61 37L57 40H46L42 37V11L46 8H57L61 11V17H55V14H48V34H55V27H51V21H61V37Z" fill="#00385E"/>
<path fill-rule="evenodd" clip-rule="evenodd" d="M35 8L39 11V23L36 26L39 29V40H33V31L28 27H26V40H20V8H35ZM33 14H26V21H33V14Z" fill="#00385E"/>
<path d="M86.9999 0L108 12V36L86.9999 48L66 36V12L86.9999 0Z" fill="white"/>
<path d="M76.5 6L87 0L97.5 6L87 12L76.5 6Z" fill="#00385E"/>
<path d="M66 24L76.5 30V42L66 36V24Z" fill="#00385E"/>
<path d="M97.5 42L87 48V24L108 12V24L97.5 30V42Z" fill="#00385E"/>
<path opacity="0.2" d="M87 23.9673V47.9902L66 35.9931L66 11.9545L87 23.9673Z" fill="#00385E"/>
</g>
<defs>
<clipPath id="clip0_367_16">
<rect width="205" height="48" fill="white"/>
</clipPath>
</defs>
</svg>
